<?xml version="1.0" encoding="UTF-8"?>
<svg xmlns="http://www.w3.org/2000/svg" xmlns:xlink="http://www.w3.org/1999/xlink" width="180px" height="180px" viewBox="0 0 180 180" version="1.1">
<g id="surface1">
<path style=" stroke:none;fill-rule:nonzero;fill:rgb(41.568628%,66.666669%,90.588236%);fill-opacity:1;" d="M 40.425781 0.195312 C 41.75 0.195312 43.078125 0.195312 44.402344 0.195312 C 47.28125 0.195312 50.15625 0.195312 53.03125 0.195312 C 55.546875 0.195312 58.0625 0.195312 60.582031 0.195312 C 60.832031 0.195312 60.832031 0.195312 61.089844 0.195312 C 61.769531 0.195312 62.453125 0.195312 63.132812 0.195312 C 69.503906 0.195312 75.878906 0.195312 82.25 0.195312 C 87.898438 0.195312 93.546875 0.195312 99.191406 0.195312 C 105.554688 0.195312 111.917969 0.195312 118.28125 0.195312 C 118.960938 0.195312 119.640625 0.195312 120.320312 0.195312 C 120.484375 0.195312 120.652344 0.195312 120.824219 0.195312 C 123.339844 0.195312 125.851562 0.195312 128.367188 0.195312 C 131.226562 0.195312 134.089844 0.195312 136.953125 0.195312 C 138.410156 0.195312 139.867188 0.195312 141.324219 0.195312 C 151.378906 0.191406 151.378906 0.191406 155.164062 0.316406 C 155.398438 0.324219 155.636719 0.332031 155.878906 0.339844 C 163.113281 0.636719 169.316406 3.679688 174.25 8.902344 C 176.933594 11.972656 178.335938 15.46875 179.550781 19.351562 C 179.625 13.929688 179.699219 8.507812 179.773438 2.925781 C 179.847656 2.925781 179.921875 2.925781 180 2.925781 C 180 56.386719 180 109.84375 180 164.925781 C 179.925781 164.925781 179.851562 164.925781 179.773438 164.925781 C 179.699219 163.738281 179.625 162.550781 179.550781 161.324219 C 179.410156 161.730469 179.410156 161.730469 179.269531 162.140625 C 178.085938 165.503906 176.765625 168.527344 174.375 171.226562 C 174.199219 171.429688 174.023438 171.636719 173.839844 171.847656 C 170.121094 176.089844 165.601562 178.109375 160.199219 179.550781 C 165.84375 179.625 171.484375 179.699219 177.300781 179.773438 C 177.300781 179.847656 177.300781 179.921875 177.300781 180 C 119.460938 180 61.617188 180 2.023438 180 C 2.023438 179.925781 2.023438 179.851562 2.023438 179.773438 C 8.261719 179.699219 14.5 179.625 20.925781 179.550781 C 19.515625 179.179688 18.101562 178.808594 16.648438 178.425781 C 14.054688 177.339844 11.859375 176.121094 9.675781 174.375 C 9.472656 174.214844 9.273438 174.054688 9.066406 173.890625 C 3.785156 169.417969 1.257812 162.890625 0.675781 156.148438 C 0.648438 155.824219 0.648438 155.824219 0.617188 155.488281 C 0.417969 152.867188 0.417969 150.25 0.417969 147.621094 C 0.417969 147.101562 0.417969 146.582031 0.417969 146.0625 C 0.417969 144.644531 0.417969 143.226562 0.417969 141.808594 C 0.417969 140.429688 0.417969 139.054688 0.414062 137.679688 C 0.414062 134.519531 0.414062 131.363281 0.414062 128.203125 C 0.414062 125.761719 0.410156 123.320312 0.410156 120.882812 C 0.410156 120.175781 0.410156 119.472656 0.410156 118.769531 C 0.410156 118.59375 0.410156 118.417969 0.410156 118.238281 C 0.410156 113.320312 0.40625 108.398438 0.410156 103.480469 C 0.410156 103.203125 0.410156 103.203125 0.410156 102.917969 C 0.410156 101.980469 0.410156 101.042969 0.410156 100.101562 C 0.410156 99.914062 0.410156 99.730469 0.410156 99.539062 C 0.410156 99.160156 0.410156 98.78125 0.410156 98.40625 C 0.410156 92.542969 0.40625 86.675781 0.402344 80.8125 C 0.398438 74.214844 0.398438 67.621094 0.398438 61.023438 C 0.398438 60.320312 0.398438 59.613281 0.398438 58.910156 C 0.398438 58.734375 0.398438 58.5625 0.398438 58.382812 C 0.398438 55.601562 0.398438 52.820312 0.394531 50.039062 C 0.394531 47.238281 0.394531 44.4375 0.394531 41.640625 C 0.394531 40.125 0.394531 38.609375 0.394531 37.097656 C 0.390625 35.707031 0.390625 34.316406 0.394531 32.925781 C 0.394531 32.425781 0.394531 31.929688 0.390625 31.429688 C 0.371094 22.082031 1.644531 14.171875 8.265625 7.230469 C 12.953125 2.65625 19.277344 0.523438 25.734375 0.316406 C 26 0.308594 26.265625 0.296875 26.539062 0.289062 C 31.167969 0.15625 35.796875 0.191406 40.425781 0.195312 Z M 40.425781 0.195312 "/>
<path style=" stroke:none;fill-rule:nonzero;fill:rgb(99.607843%,99.607843%,99.607843%);fill-opacity:1;" d="M 97.425781 14.175781 C 97.679688 14.214844 97.679688 14.214844 97.941406 14.257812 C 109.035156 16.113281 118.574219 21.824219 125.132812 31.003906 C 132.597656 41.746094 135.828125 55.042969 137.195312 67.898438 C 137.253906 68.425781 137.3125 68.949219 137.375 69.472656 C 138.144531 76.257812 138.230469 83.011719 138.21875 89.832031 C 138.21875 90.046875 138.21875 90.261719 138.21875 90.480469 C 138.210938 96.570312 138.125 102.625 137.546875 108.6875 C 137.527344 108.890625 137.507812 109.089844 137.488281 109.292969 C 136.933594 115.035156 136.085938 120.761719 134.683594 126.363281 C 134.550781 126.898438 134.429688 127.4375 134.308594 127.976562 C 133.191406 132.894531 131.367188 137.675781 129.148438 142.199219 C 129.0625 142.378906 128.972656 142.5625 128.882812 142.746094 C 127.125 146.308594 125.015625 149.554688 122.398438 152.550781 C 122.300781 152.664062 122.203125 152.777344 122.101562 152.894531 C 117.707031 157.925781 112.273438 161.574219 105.976562 163.800781 C 105.804688 163.863281 105.632812 163.921875 105.453125 163.984375 C 104.957031 164.160156 104.453125 164.320312 103.949219 164.476562 C 103.726562 164.546875 103.5 164.617188 103.269531 164.691406 C 101.777344 165.144531 100.296875 165.496094 98.761719 165.753906 C 98.527344 165.796875 98.527344 165.796875 98.289062 165.835938 C 95.546875 166.273438 92.785156 166.320312 90.015625 166.316406 C 89.839844 166.316406 89.667969 166.316406 89.492188 166.316406 C 85.53125 166.308594 81.660156 166.171875 77.839844 165.050781 C 77.382812 164.917969 76.921875 164.796875 76.464844 164.671875 C 69.480469 162.757812 63.539062 159.070312 58.390625 154.007812 C 58.101562 153.722656 57.808594 153.445312 57.511719 153.164062 C 53.128906 148.933594 50.152344 143.527344 47.925781 137.925781 C 47.839844 137.710938 47.753906 137.5 47.667969 137.277344 C 44.457031 129.109375 42.898438 120.308594 42.074219 111.601562 C 42.046875 111.292969 42.015625 110.988281 41.988281 110.679688 C 41.90625 109.847656 41.828125 109.011719 41.753906 108.175781 C 41.726562 107.855469 41.695312 107.535156 41.667969 107.214844 C 41.125 101.296875 41.121094 95.347656 41.117188 89.410156 C 41.117188 89.226562 41.117188 89.039062 41.117188 88.847656 C 41.113281 83.222656 41.214844 77.640625 41.800781 72.039062 C 41.855469 71.5 41.90625 70.960938 41.957031 70.421875 C 43.527344 54.144531 47.570312 37.691406 58.949219 25.425781 C 59.078125 25.28125 59.210938 25.136719 59.34375 24.988281 C 65.089844 18.871094 73.375 15.65625 81.449219 14.175781 C 81.695312 14.128906 81.695312 14.128906 81.949219 14.082031 C 86.84375 13.242188 92.535156 13.328125 97.425781 14.175781 Z M 97.425781 14.175781 "/>
<path style=" stroke:none;fill-rule:nonzero;fill:rgb(41.568628%,66.666669%,90.588236%);fill-opacity:1;" d="M 97.582031 39.664062 C 103.382812 43.996094 105.753906 51.910156 106.761719 58.820312 C 106.882812 59.710938 106.992188 60.601562 107.101562 61.496094 C 107.121094 61.65625 107.140625 61.820312 107.160156 61.988281 C 107.703125 66.546875 107.996094 71.109375 108.121094 75.699219 C 108.128906 75.875 108.132812 76.046875 108.136719 76.230469 C 108.257812 80.710938 108.257812 85.195312 108.253906 89.679688 C 108.253906 90.84375 108.253906 92.007812 108.253906 93.171875 C 108.265625 102.5625 108.265625 102.5625 108 107.101562 C 107.988281 107.289062 107.980469 107.480469 107.96875 107.675781 C 107.898438 108.941406 107.8125 110.207031 107.71875 111.472656 C 107.703125 111.660156 107.691406 111.851562 107.675781 112.042969 C 106.136719 132.363281 106.136719 132.363281 99.675781 138.824219 C 95.785156 142.0625 91.804688 142.726562 86.851562 142.425781 C 85.808594 142.285156 84.878906 141.964844 83.925781 141.523438 C 83.710938 141.429688 83.5 141.335938 83.28125 141.234375 C 78.265625 138.746094 76.152344 133.796875 74.417969 128.789062 C 73.867188 127.132812 73.460938 125.460938 73.125 123.75 C 73.035156 123.3125 73.035156 123.3125 72.945312 122.871094 C 71.96875 117.863281 71.625 112.75 71.394531 107.664062 C 71.386719 107.511719 71.382812 107.363281 71.375 107.207031 C 69.339844 63.261719 69.339844 63.261719 79.015625 41.960938 C 83.867188 37.042969 91.664062 35.765625 97.582031 39.664062 Z M 97.582031 39.664062 "/>
<path style=" stroke:none;fill-rule:nonzero;fill:rgb(99.215686%,99.607843%,99.607843%);fill-opacity:1;" d="M 94.15625 90.8125 C 96.769531 92.246094 98.59375 94.09375 99.527344 96.964844 C 100.117188 99.675781 99.644531 102.105469 98.238281 104.476562 C 96.980469 106.273438 95.421875 107.460938 93.375 108.226562 C 93.53125 109.5 93.804688 110.722656 94.121094 111.964844 C 94.164062 112.148438 94.210938 112.332031 94.257812 112.519531 C 94.527344 113.597656 94.832031 114.660156 95.164062 115.71875 C 95.710938 117.472656 96.15625 119.246094 96.605469 121.027344 C 96.992188 122.542969 97.417969 124.03125 97.910156 125.515625 C 98.101562 126.226562 98.101562 126.226562 98.324219 128.023438 C 93.054688 128.023438 87.78125 128.023438 82.351562 128.023438 C 83.082031 124.738281 83.867188 121.464844 84.847656 118.242188 C 85.335938 116.621094 85.730469 114.976562 86.136719 113.332031 C 86.558594 111.617188 87.019531 109.917969 87.523438 108.226562 C 87.230469 108.140625 87.230469 108.140625 86.925781 108.050781 C 85.011719 107.347656 83.367188 105.9375 82.351562 104.175781 C 82.242188 103.988281 82.132812 103.804688 82.019531 103.613281 C 80.921875 101.421875 80.871094 98.871094 81.375 96.496094 C 82.347656 93.785156 84.492188 91.882812 87.023438 90.671875 C 89.082031 89.765625 92.109375 89.914062 94.15625 90.8125 Z M 94.15625 90.8125 "/>
</g>
</svg>
